<svg width="25.000000" height="28.000000" viewBox="0 0 25 28" fill="none" xmlns="http://www.w3.org/2000/svg" xmlns:xlink="http://www.w3.org/1999/xlink">
    <desc>
        Created with Pixso.
    </desc>
    <defs/>
    <path id="66 Accounting, Business, Calculate, Finance, Math" d="M1.92 24.18L12.21 24.18L12.21 25.45L1.92 25.45C1.41 25.45 0.92 25.25 0.56 24.89C0.2 24.53 0 24.05 0 23.54L0 3.18C0 2.67 0.2 2.18 0.56 1.83C0.92 1.47 1.41 1.27 1.92 1.27L5.76 1.27L5.76 2.54L1.92 2.54C1.75 2.54 1.59 2.61 1.46 2.73C1.34 2.85 1.28 3.01 1.28 3.18L1.28 23.54C1.28 23.71 1.34 23.87 1.46 23.99C1.59 24.11 1.75 24.18 1.92 24.18ZM20.51 3.18L20.51 10.18L21.79 10.18L21.79 3.18C21.79 2.67 21.59 2.18 21.23 1.83C20.87 1.47 20.38 1.27 19.87 1.27L16.02 1.27L16.02 2.54L19.87 2.54C20.04 2.54 20.2 2.61 20.32 2.73C20.44 2.85 20.51 3.01 20.51 3.18ZM5.76 5.09L5.76 3.81L3.2 3.81C3.03 3.81 2.87 3.88 2.75 4C2.63 4.12 2.56 4.28 2.56 4.45L2.56 22.27C2.56 22.44 2.63 22.6 2.75 22.72C2.87 22.84 3.03 22.9 3.2 22.9L12.17 22.9L12.17 21.63L3.84 21.63L3.84 5.09L5.76 5.09ZM17.94 10.13L19.23 10.13L19.23 4.45C19.23 4.28 19.16 4.12 19.04 4C18.92 3.88 18.75 3.81 18.58 3.81L16.02 3.81L16.02 5.09L17.94 5.09L17.94 10.13ZM6.41 5.72L6.41 0.63C6.41 0.46 6.47 0.3 6.59 0.18C6.71 0.06 6.88 0 7.05 0L14.74 0C14.91 0 15.07 0.06 15.19 0.18C15.31 0.3 15.38 0.46 15.38 0.63L15.38 5.72C15.38 5.89 15.31 6.05 15.19 6.17C15.07 6.29 14.91 6.36 14.74 6.36L7.05 6.36C6.88 6.36 6.71 6.29 6.59 6.17C6.47 6.05 6.41 5.89 6.41 5.72ZM7.69 5.09L14.1 5.09L14.1 1.27L7.69 1.27L7.69 5.09ZM15.38 8.9L6.41 8.9L6.41 10.18L15.38 10.18L15.38 8.9ZM12.17 12.72L6.41 12.72L6.41 14L12.17 14L12.17 12.72ZM12.17 16.54L6.41 16.54L6.41 17.81L12.17 17.81L12.17 16.54ZM9.61 3.81L12.17 3.81L12.17 2.54L9.61 2.54L9.61 3.81ZM25 13.36L25 26.09C25 26.59 24.79 27.08 24.43 27.44C24.07 27.79 23.58 28 23.07 28L15.38 28C14.87 28 14.38 27.79 14.02 27.44C13.66 27.08 13.46 26.59 13.46 26.09L13.46 13.36C13.46 12.85 13.66 12.37 14.02 12.01C14.38 11.65 14.87 11.45 15.38 11.45L23.07 11.45C23.58 11.45 24.07 11.65 24.43 12.01C24.79 12.37 25 12.85 25 13.36ZM23.71 13.36C23.71 13.19 23.65 13.03 23.53 12.91C23.41 12.79 23.24 12.72 23.07 12.72L15.38 12.72C15.21 12.72 15.05 12.79 14.93 12.91C14.81 13.03 14.74 13.19 14.74 13.36L14.74 26.09C14.74 26.25 14.81 26.42 14.93 26.54C15.05 26.66 15.21 26.72 15.38 26.72L23.07 26.72C23.24 26.72 23.41 26.66 23.53 26.54C23.65 26.42 23.71 26.25 23.71 26.09L23.71 13.36ZM22.43 14.63L22.43 17.18C22.43 17.35 22.36 17.51 22.24 17.63C22.12 17.75 21.96 17.81 21.79 17.81L16.66 17.81C16.49 17.81 16.33 17.75 16.21 17.63C16.09 17.51 16.02 17.35 16.02 17.18L16.02 14.63C16.02 14.46 16.09 14.3 16.21 14.18C16.33 14.06 16.49 14 16.66 14L21.79 14C21.96 14 22.12 14.06 22.24 14.18C22.36 14.3 22.43 14.46 22.43 14.63ZM21.15 15.27L17.3 15.27L17.3 16.54L21.15 16.54L21.15 15.27ZM16.02 20.36L18.58 20.36L18.58 19.09L16.02 19.09L16.02 20.36ZM19.87 20.36L22.43 20.36L22.43 19.09L19.87 19.09L19.87 20.36ZM16.02 22.9L18.58 22.9L18.58 21.63L16.02 21.63L16.02 22.9ZM19.87 22.9L22.43 22.9L22.43 21.63L19.87 21.63L19.87 22.9ZM16.02 25.45L18.58 25.45L18.58 24.18L16.02 24.18L16.02 25.45ZM19.87 25.45L22.43 25.45L22.43 24.18L19.87 24.18L19.87 25.45Z" fill="#1A314E" fill-opacity="1.000000" fill-rule="nonzero"/>
</svg>
