<svg width="25.000000" height="25.000000" viewBox="0 0 25 25" fill="none" xmlns="http://www.w3.org/2000/svg" xmlns:xlink="http://www.w3.org/1999/xlink">
    <desc>
        Created with Pixso.
    </desc>
    <defs/>
    <path id="path7" d="M12.5 0C9.18 0 6 1.32 3.66 3.66C1.32 6 0 9.18 0 12.5C0 15.83 1.3 18.97 3.66 21.33C4.81 22.5 6.19 23.42 7.71 24.05C9.23 24.68 10.85 25 12.5 25C15.81 24.99 18.99 23.67 21.33 21.33C23.67 18.99 24.99 15.81 25 12.5C24.99 9.18 23.67 6 21.33 3.66C18.99 1.32 15.81 0 12.5 0ZM12.5 1.78C15.34 1.78 18.06 2.91 20.07 4.92C22.08 6.93 23.21 9.65 23.21 12.5C23.21 15.19 22.19 17.78 20.35 19.76C19.14 18.32 17.56 17.24 15.78 16.63C16.4 16.13 16.9 15.5 17.24 14.78C17.58 14.06 17.76 13.28 17.76 12.48C17.76 11.78 17.62 11.09 17.35 10.44C17.07 9.79 16.68 9.2 16.18 8.71C15.68 8.21 15.09 7.82 14.44 7.56C13.79 7.29 13.09 7.16 12.39 7.16C11.69 7.16 10.99 7.3 10.34 7.57C9.69 7.84 9.11 8.24 8.61 8.74C8.12 9.24 7.73 9.83 7.46 10.48C7.19 11.13 7.06 11.82 7.06 12.53C7.06 14.18 7.84 15.65 9.03 16.62C7.29 17.22 5.74 18.26 4.53 19.65C2.75 17.69 1.77 15.14 1.78 12.5C1.78 9.65 2.91 6.93 4.92 4.92C6.93 2.91 9.65 1.78 12.5 1.78ZM12.43 8.94C14.39 8.94 15.98 10.53 15.98 12.53C15.97 13.45 15.61 14.33 14.98 14.99C14.34 15.64 13.47 16.03 12.55 16.06C12.5 16.06 12.45 16.05 12.4 16.05C12.35 16.05 12.31 16.06 12.26 16.06C11.34 16.02 10.47 15.63 9.83 14.96C9.2 14.3 8.84 13.41 8.85 12.48C8.85 10.53 10.44 8.94 12.43 8.94ZM12.26 17.84C12.3 17.84 12.35 17.85 12.39 17.85L12.43 17.85C12.47 17.85 12.5 17.84 12.54 17.84C13.79 17.86 15.01 18.15 16.13 18.69C17.25 19.23 18.24 20 19.04 20.96C17.17 22.42 14.87 23.21 12.5 23.21C10.07 23.22 7.72 22.39 5.83 20.88C6.62 19.94 7.61 19.19 8.72 18.66C9.83 18.14 11.03 17.86 12.26 17.84Z" fill="#007BF9" fill-opacity="1.000000" fill-rule="nonzero"/>
</svg>
