<svg width="169.042419" height="47.515625" viewBox="0 0 169.042 47.5156" fill="none" xmlns="http://www.w3.org/2000/svg" xmlns:xlink="http://www.w3.org/1999/xlink">
    <desc>
        Created with Pixso.
    </desc>
    <defs/>
    <path id="Path_84264" d="M77.98 30.91C77.36 30.57 76.77 30.2 76.2 29.8C75.55 29.35 74.84 28.8 74.06 28.16C73.77 28.58 73.43 28.97 73.07 29.32C72.7 29.69 72.28 30 71.83 30.26C71.38 30.53 70.9 30.75 70.4 30.91C69.9 31.08 69.37 31.16 68.84 31.16C68.2 31.16 67.57 31.04 66.98 30.79C66.46 30.61 66.03 30.26 65.73 29.8L66.9 26.04C67.03 26.31 67.24 26.53 67.51 26.67C67.79 26.81 68.1 26.88 68.41 26.87C68.71 26.87 69.01 26.81 69.3 26.72C69.61 26.61 69.9 26.46 70.17 26.27C70.44 26.07 70.68 25.82 70.87 25.54C71.08 25.25 71.23 24.91 71.31 24.56L65.07 24.56L65.07 20.39L94.23 20.39L94.23 24.56L92.48 24.56L92.48 39.58L88.28 39.58L88.28 36.25C87.62 35.4 86.8 34.69 85.86 34.17C84.87 33.68 83.79 33.44 82.7 33.47C80.8 33.47 79.79 33.89 79.67 34.71L79.7 35.02C79.82 35.28 80.05 35.46 80.33 35.53C80.68 35.64 81.03 35.7 81.4 35.7C81.91 35.63 82.23 35.51 82.34 35.33C82.42 35.21 82.48 35.07 82.51 34.93L86.02 37.18C85.84 37.43 85.63 37.66 85.39 37.87C85.06 38.17 84.71 38.43 84.33 38.66C83.89 38.92 83.43 39.14 82.95 39.31C82.45 39.49 81.92 39.59 81.39 39.59C80.71 39.54 80.03 39.42 79.37 39.22C78.71 39.02 78.07 38.73 77.49 38.35C76.94 38 76.46 37.54 76.09 37C75.71 36.46 75.51 35.83 75.5 35.18C75.48 34.32 75.73 33.48 76.19 32.77C76.66 32.06 77.25 31.45 77.94 30.95L77.97 30.92L77.98 30.91ZM76.37 24.55C77.04 25.23 77.77 25.85 78.55 26.4C78.97 26.73 79.46 26.93 79.99 26.99C80.46 27.05 80.89 26.72 80.95 26.25C80.96 26.16 80.96 26.08 80.94 26C80.94 25.04 80.42 24.56 79.37 24.56L76.38 24.56L76.37 24.55ZM85.02 24.55C85.17 25.16 85.25 25.78 85.26 26.4C85.29 27.47 84.97 28.51 84.34 29.37L84.8 29.43C85.68 29.59 86.53 29.88 87.33 30.29L88.29 30.76L88.29 24.55L85.02 24.55ZM95.38 24.55L93.62 24.55L93.62 20.38L101.31 20.38L101.31 24.55L99.55 24.55L99.55 39.58L95.38 39.58L95.38 24.55L95.38 24.55ZM102.45 30.51L102.45 24.55L100.69 24.55L100.69 20.38L111.15 20.38C111.32 20.19 111.41 19.93 111.43 19.68C111.46 19.42 111.29 19.19 111.03 19.15C110.99 19.14 110.94 19.14 110.9 19.15C110.31 19.15 109.72 19.21 109.14 19.32C108.56 19.43 107.97 19.49 107.38 19.49L107.07 19.49C106.42 19.49 105.77 19.35 105.17 19.09C104.56 18.82 104 18.46 103.49 18.03C102.98 17.58 102.52 17.08 102.14 16.53C101.76 16.01 101.44 15.45 101.18 14.86L104.95 13.1C105.13 13.49 105.35 13.85 105.59 14.2C105.77 14.45 105.98 14.67 106.21 14.86C106.41 15.02 106.63 15.14 106.87 15.2C107.13 15.27 107.4 15.3 107.66 15.3C107.91 15.3 108.16 15.27 108.4 15.22C108.67 15.17 108.96 15.12 109.29 15.08L109.72 15.02C110.08 14.95 110.44 14.92 110.8 14.92C111.42 14.92 112.03 15.04 112.59 15.28C113.12 15.5 113.61 15.81 114.04 16.19C114.44 16.54 114.77 16.96 115.03 17.42C115.26 17.83 115.39 18.28 115.4 18.75C115.45 19.33 115.29 19.92 114.93 20.38L117.68 20.38L117.68 24.55L106.61 24.55L106.61 32.61C106.63 33.36 106.91 34.08 107.39 34.66C107.77 35.06 108.3 35.29 108.86 35.29C109.29 35.29 109.72 35.19 110.11 35C110.54 34.8 110.93 34.52 111.27 34.17C111.63 33.78 111.92 33.33 112.11 32.84C112.34 32.28 112.45 31.67 112.44 31.07C112.44 30.31 112.15 29.92 111.57 29.92C111.35 29.92 111.15 30.01 110.99 30.16C110.82 30.32 110.73 30.55 110.74 30.79L110.8 31.1L107.71 30.3C107.55 30.06 107.46 29.78 107.46 29.49C107.44 28.87 107.61 28.26 107.94 27.73C108.25 27.27 108.66 26.89 109.13 26.61C109.6 26.33 110.1 26.13 110.63 26.02C111.09 25.92 111.56 25.86 112.03 25.85C112.71 25.84 113.38 25.99 113.99 26.3C114.54 26.59 115.03 26.99 115.42 27.47C115.82 27.97 116.13 28.53 116.32 29.14C116.52 29.77 116.63 30.43 116.63 31.1C116.63 32.14 116.44 33.18 116.07 34.17C115.71 35.15 115.17 36.06 114.47 36.85C113.77 37.64 112.91 38.29 111.95 38.75C110.93 39.23 109.8 39.48 108.67 39.46C107.5 39.47 106.36 39.11 105.41 38.42C104.41 37.71 103.63 36.73 103.14 35.6C102.9 35.07 102.69 34.66 102.53 34.37C102.36 34.08 102.23 33.86 102.14 33.71C102.06 33.59 102 33.45 101.96 33.32C101.92 33.18 101.9 33.03 101.91 32.89C101.93 32.5 102.01 32.13 102.17 31.78C102.34 31.38 102.43 30.95 102.44 30.52L102.45 30.51ZM108.87 19.12L107.23 16.53C112.02 12.35 115.2 10.11 116.77 9.8L119.82 14.24C119.7 14.22 119.57 14.21 119.45 14.2C119.33 14.19 119.21 14.18 119.08 14.18C118.35 14.2 117.63 14.33 116.94 14.58C116 14.92 115.11 15.35 114.27 15.88L108.87 19.12Z" fill="#FFFFFF" fill-opacity="1.000000" fill-rule="nonzero"/>
    <path id="Path_84265" d="M137.44 24.55L125.93 24.55L125.93 20.38L143.36 20.38L143.36 24.55L141.61 24.55L141.61 39.58L137.44 39.58L137.44 32.08C137.3 31.79 137.1 31.53 136.85 31.32C136.57 31.08 136.27 30.87 135.94 30.7C135.59 30.52 135.22 30.39 134.83 30.3C134.45 30.21 134.06 30.16 133.67 30.16C133.04 30.15 132.42 30.34 131.9 30.7C131.36 31.13 131.08 31.79 131.14 32.48C131.15 32.8 131.24 33.13 131.4 33.41C131.53 33.73 131.85 33.93 132.19 33.92C132.4 33.92 132.6 33.79 132.7 33.6C132.85 33.32 132.92 33.01 132.89 32.69L132.89 32.38L136.14 34.11C136.13 35.17 135.67 36.17 134.89 36.87C133.98 37.59 132.84 37.94 131.69 37.87C131.06 37.88 130.42 37.75 129.84 37.49C129.27 37.23 128.75 36.85 128.33 36.39C127.88 35.88 127.53 35.29 127.31 34.65C127.05 33.89 126.93 33.11 126.94 32.32C126.92 31.35 127.12 30.4 127.53 29.52C127.89 28.77 128.42 28.1 129.06 27.56C129.7 27.04 130.44 26.65 131.23 26.41C132.05 26.15 132.91 26.02 133.76 26.02C135.03 26.03 136.28 26.3 137.44 26.82L137.44 24.54L137.44 24.55ZM144.5 20.38C144.55 20.09 144.58 19.82 144.61 19.55C144.64 19.29 144.66 19.04 144.66 18.78C144.66 18.54 144.64 18.29 144.6 18.05C144.56 17.84 144.5 17.63 144.44 17.42C143.51 14.79 141.74 13.47 139.1 13.47C137.25 13.47 135.94 13.63 135.17 13.95C134.39 14.27 134.01 14.66 134.01 15.11C134.01 15.44 134.31 15.6 134.9 15.6C135.36 15.59 135.81 15.54 136.26 15.45C136.9 15.34 137.55 15.29 138.2 15.3C139.07 15.28 139.92 15.57 140.59 16.12C141.27 16.68 141.64 17.53 141.6 18.41L141.6 20.39L144.5 20.39L144.5 20.38ZM148.67 24.55L148.67 39.58L144.5 39.58L144.5 24.55L140.67 24.55L140.67 21.31L137.44 21.31L137.44 19.92C137.44 19.38 137.14 19.11 136.54 19.11C136.32 19.12 136.1 19.14 135.88 19.19C135.62 19.25 135.36 19.3 135.09 19.35C134.82 19.4 134.56 19.45 134.31 19.5C134.08 19.55 133.85 19.57 133.61 19.58C133.09 19.57 132.58 19.44 132.12 19.21C131.6 18.95 131.14 18.61 130.74 18.19C130.33 17.75 129.98 17.25 129.72 16.71C129.46 16.16 129.32 15.56 129.32 14.95C129.35 14.41 129.5 13.88 129.77 13.41C130.15 12.72 130.68 12.12 131.33 11.68C132.24 11.04 133.26 10.56 134.34 10.27C135.91 9.85 137.54 9.66 139.17 9.7C140.58 9.68 141.99 9.92 143.32 10.41C144.45 10.84 145.48 11.49 146.34 12.32C147.15 13.12 147.78 14.08 148.18 15.15C148.6 16.25 148.8 17.41 148.8 18.59C148.8 18.85 148.79 19.12 148.77 19.41C148.75 19.68 148.72 19.97 148.67 20.25L148.67 20.38L150.44 20.38L150.44 24.55L148.67 24.55L148.67 24.55ZM157.13 24.55L149.81 24.55L149.81 20.38L169.04 20.38L169.04 24.55L161.05 24.55L161.05 28.47C161.05 28.59 161.1 28.71 161.19 28.79C161.26 28.88 161.37 28.93 161.48 28.93C161.69 28.93 161.85 28.77 161.96 28.44C162.07 28.11 162.18 27.75 162.3 27.37C162.41 27.01 162.54 26.65 162.7 26.31C162.79 26.02 163.06 25.83 163.36 25.82C163.86 25.86 164.33 26.05 164.72 26.36C165.3 26.76 165.82 27.25 166.26 27.81C166.78 28.45 167.2 29.17 167.53 29.93C167.88 30.74 168.05 31.6 168.05 32.48C168.06 33.47 167.86 34.44 167.46 35.35C167.09 36.21 166.55 36.98 165.88 37.63C165.2 38.27 164.41 38.78 163.55 39.13C162.65 39.49 161.7 39.67 160.74 39.67C159.35 39.68 157.97 39.38 156.71 38.79C155.52 38.23 154.45 37.44 153.56 36.46C152.68 35.48 151.99 34.34 151.53 33.1C151.05 31.83 150.8 30.49 150.8 29.15C150.8 27.89 151.02 26.64 151.48 25.48L155 27.17C154.88 27.53 154.79 27.9 154.74 28.27C154.69 28.62 154.66 28.98 154.66 29.33C154.66 30.15 154.83 30.95 155.15 31.69C155.47 32.42 155.91 33.09 156.46 33.67C157 34.23 157.64 34.69 158.35 35.02C159.03 35.35 159.79 35.53 160.55 35.53C161.5 35.59 162.44 35.27 163.14 34.64C163.76 34.04 164.07 33.08 164.07 31.77L164.07 31.3C163.29 32.58 162.45 33.22 161.54 33.22C161.01 33.21 160.49 33.08 160.01 32.83C159.5 32.58 159.03 32.27 158.6 31.9C158.2 31.57 157.85 31.2 157.54 30.79C157.31 30.52 157.17 30.18 157.13 29.82L157.13 24.55ZM160.4 40.57C161.22 40.57 162.01 40.91 162.59 41.49C163.1 42.05 163.38 42.8 163.36 43.56C163.38 44.32 163.11 45.06 162.62 45.63C162.04 46.24 161.24 46.59 160.4 46.59C159.57 46.58 158.78 46.25 158.19 45.68C157.66 45.1 157.37 44.34 157.4 43.56C157.37 42.78 157.66 42.03 158.19 41.46C158.79 40.9 159.57 40.58 160.4 40.57L160.4 40.57Z" fill="#FFFFFF" fill-opacity="1.000000" fill-rule="nonzero"/>
    <path id="Vector" d="M0 29.41L0 32.7L35.32 3.28L35.32 0L0 29.41Z" fill="#FFFFFF" fill-opacity="1.000000" fill-rule="nonzero"/>
    <path id="Vector" d="M23.22 12.52L23.22 20.56L27.02 23.8L27.02 16.9L31.43 14.13L31.43 27.58L35.33 30.91L35.33 2.45L23.22 12.52Z" fill="#FFFFFF" fill-opacity="1.000000" fill-rule="nonzero"/>
    <path id="Vector" d="M9.45 33.86L9.45 47.51L13.48 47.51L13.48 40L17.89 36.17L17.89 47.51L21.56 47.51L21.56 23.28L9.45 33.86Z" fill="#FFFFFF" fill-opacity="1.000000" fill-rule="nonzero"/>
    <path id="Vector" d="M46.85 23.87L46.85 11.33L37.14 1.77L37.14 31.16L46.85 23.87Z" fill="#00D4FF" fill-opacity="1.000000" fill-rule="nonzero"/>
    <path id="Vector" d="M46.85 35.67L46.85 27.36L37.14 34.65L37.14 42.96L46.85 35.67Z" fill="#00D4FF" fill-opacity="1.000000" fill-rule="nonzero"/>
    <path id="Vector" d="M37.14 46.45L37.14 47.51L46.85 47.51L46.85 39.16L37.14 46.45Z" fill="#00D4FF" fill-opacity="1.000000" fill-rule="nonzero"/>
    <path id="Vector" d="M35.33 44.32L35.33 33.86L23.22 23.28L23.22 47.51L31.07 47.51L35.33 44.32Z" fill="#00D4FF" fill-opacity="1.000000" fill-rule="nonzero"/>
</svg>
