<svg width="24.000000" height="24.000000" viewBox="0 0 24 24" fill="none" xmlns="http://www.w3.org/2000/svg" xmlns:xlink="http://www.w3.org/1999/xlink">
    <desc>
        Created with Pixso.
    </desc>
    <defs/>
    <path id="Vector" d="M13 24L1 24C0.4 24 0 23.6 0 23L0 1C0 0.4 0.4 0 1 0L13 0C13.6 0 14 0.4 14 1L14 23C14 23.6 13.6 24 13 24ZM2 22L12 22L12 2L2 2L2 22Z" fill="#6159FC" fill-opacity="1.000000" fill-rule="nonzero"/>
    <path id="Vector" d="M23 24L13 24C12.4 24 12 23.6 12 23L12 7C12 6.4 12.4 6 13 6L23 6C23.6 6 24 6.4 24 7L24 23C24 23.6 23.6 24 23 24ZM14 22L22 22L22 8L14 8L14 22ZM5 16C4.4 16 4 15.6 4 15L4 5C4 4.4 4.4 4 5 4C5.59 4 6 4.4 6 5L6 15C6 15.6 5.59 16 5 16ZM9 16C8.4 16 8 15.6 8 15L8 5C8 4.4 8.4 4 9 4C9.59 4 10 4.4 10 5L10 15C10 15.6 9.59 16 9 16Z" fill="#6159FC" fill-opacity="1.000000" fill-rule="nonzero"/>
    <path id="Vector" d="M20 24L16 24C15.4 24 15 23.6 15 23L15 19C15 18.4 15.4 18 16 18L20 18C20.6 18 21 18.4 21 19L21 23C21 23.6 20.6 24 20 24ZM17 22L19 22L19 20L17 20L17 22ZM9 24L5 24C4.4 24 4 23.6 4 23L4 19C4 18.4 4.4 18 5 18L9 18C9.59 18 10 18.4 10 19L10 23C10 23.6 9.59 24 9 24ZM6 22L8 22L8 20L6 20L6 22ZM20 16L16 16C15.4 16 15 15.6 15 15C15 14.4 15.4 14 16 14L20 14C20.6 14 21 14.4 21 15C21 15.6 20.6 16 20 16ZM20 12L16 12C15.4 12 15 11.6 15 11C15 10.4 15.4 10 16 10L20 10C20.6 10 21 10.4 21 11C21 11.6 20.6 12 20 12Z" fill="#6159FC" fill-opacity="1.000000" fill-rule="nonzero"/>
</svg>
