<svg width="27.003723" height="25.002930" viewBox="0 0 27.0037 25.0029" fill="none" xmlns="http://www.w3.org/2000/svg" xmlns:xlink="http://www.w3.org/1999/xlink">
    <desc>
        Created with Pixso.
    </desc>
    <defs/>
    <path id="Vector" d="M24.77 20.05C25.75 17.84 26.16 15.42 25.94 13.01C25.84 11.42 25.25 9.91 24.24 8.67C23.39 7.66 22.33 6.84 21.14 6.25C19.74 5.56 18.27 5.03 16.74 4.67C13.38 3.86 10.06 2.87 6.81 1.71C6.23 1.51 5.65 1.34 5.05 1.2C4.34 1.01 3.6 0.95 2.87 1.04C2.58 1.06 2.3 1.15 2.05 1.29C1.8 1.43 1.58 1.62 1.41 1.84C1.24 2.07 1.11 2.33 1.05 2.61C0.98 2.89 0.98 3.18 1.03 3.45C1.16 4.23 1.47 4.96 1.93 5.59C2.02 5.74 2.12 5.89 2.22 6.04C2.17 6.1 2.11 6.15 2.05 6.2C1.73 6.4 1.47 6.69 1.31 7.02C1.14 7.36 1.07 7.73 1.1 8.11C1.15 8.8 1.38 9.47 1.78 10.04C2.22 10.72 2.77 11.31 3.4 11.8L3.89 12.21C3.67 12.86 3.62 13.56 3.76 14.24C3.98 15.25 4.55 16.16 5.38 16.8C6.46 17.65 7.69 18.3 9 18.73C10.23 19.17 11.48 19.58 12.71 20C12.89 20.07 13.07 20.14 13.34 20.24L12.92 20.65C12.75 20.8 12.59 20.97 12.44 21.15C12.35 21.26 12.29 21.38 12.26 21.52C12.23 21.65 12.23 21.79 12.27 21.93C12.3 22.06 12.37 22.18 12.47 22.28C12.57 22.39 12.69 22.46 12.82 22.5C13 22.58 13.19 22.63 13.39 22.67C15.02 22.95 16.71 22.79 18.26 22.2L18.95 21.95L19.04 22.05C18.92 22.33 18.81 22.6 18.7 22.88C18.45 23.57 18.82 24.07 19.56 23.99C20.84 23.88 22.05 23.36 23.01 22.52C23.77 21.83 24.37 20.99 24.77 20.05ZM20.23 21.92C20.36 21.07 19.82 20.57 18.97 20.78C18.55 20.89 18.15 21.05 17.75 21.19C16.55 21.65 15.25 21.81 13.97 21.65L13.65 21.6C13.72 21.49 13.79 21.39 13.87 21.3C14.12 21.05 14.39 20.82 14.63 20.55C14.72 20.48 14.78 20.39 14.82 20.29C14.85 20.18 14.86 20.07 14.84 19.97C14.82 19.86 14.77 19.76 14.7 19.68C14.63 19.59 14.54 19.53 14.43 19.5C14.3 19.44 14.17 19.38 14.03 19.34C12.77 18.91 11.55 18.5 10.33 18.04C9.27 17.66 8.24 17.23 7.22 16.74C6.61 16.4 6.05 15.98 5.56 15.5C5.24 15.2 5 14.84 4.85 14.44C4.7 14.04 4.65 13.61 4.7 13.18C4.69 13.11 4.69 13.04 4.7 12.97C4.7 12.97 4.74 12.92 4.78 12.87C4.9 12.93 5.03 12.98 5.15 13.05C7.48 14.34 9.94 15.4 12.48 16.2C12.63 16.25 12.79 16.29 12.95 16.3C13.07 16.31 13.19 16.28 13.29 16.21C13.38 16.14 13.45 16.04 13.48 15.93C13.53 15.83 13.53 15.72 13.5 15.61C13.46 15.51 13.39 15.42 13.3 15.36C13.09 15.23 12.86 15.13 12.62 15.05C10.55 14.38 8.54 13.54 6.62 12.52C5.74 12.07 4.9 11.54 4.1 10.95C3.58 10.5 3.11 9.99 2.71 9.42C2.49 9.1 2.33 8.74 2.24 8.36C2.18 8.19 2.16 8.02 2.18 7.84C2.2 7.66 2.26 7.49 2.36 7.34C2.4 7.25 2.46 7.17 2.54 7.11C2.62 7.05 2.71 7.01 2.81 7C2.91 6.99 3.02 7 3.11 7.04C3.2 7.08 3.28 7.14 3.34 7.22C5.53 9.15 8.1 10.59 10.89 11.47C10.97 11.5 11.06 11.53 11.15 11.54C11.21 11.56 11.28 11.57 11.34 11.57C11.41 11.56 11.47 11.55 11.53 11.52C11.59 11.49 11.64 11.45 11.68 11.4C11.73 11.35 11.76 11.29 11.78 11.23C11.82 11.11 11.81 10.98 11.76 10.86C11.71 10.75 11.61 10.66 11.49 10.61C11.33 10.53 11.17 10.46 11 10.4C9.24 9.78 7.57 8.95 6.03 7.92C4.88 7.19 3.88 6.25 3.08 5.16C2.74 4.68 2.47 4.16 2.29 3.61C1.99 2.7 2.42 2.15 3.39 2.15C3.96 2.16 4.53 2.24 5.08 2.39C5.9 2.6 6.69 2.87 7.49 3.15C10.36 4.19 13.29 4.97 16.25 5.72C17.56 6.01 18.84 6.44 20.06 7C20.79 7.36 21.5 7.77 22.17 8.24C22.92 8.78 23.54 9.47 24 10.27C24.45 11.07 24.72 11.96 24.79 12.87C25.05 15.17 24.68 17.49 23.73 19.61C23.37 20.44 22.82 21.18 22.13 21.78C21.53 22.27 20.82 22.61 20.05 22.77C20.11 22.45 20.18 22.16 20.23 21.9L20.23 21.92Z" fill="#00D4FF" fill-opacity="1.000000" fill-rule="nonzero"/>
    <path id="Vector" d="M25.94 13.01C25.84 11.42 25.25 9.91 24.24 8.67C23.39 7.66 22.33 6.84 21.14 6.25C19.74 5.56 18.27 5.03 16.74 4.67C13.38 3.86 10.06 2.87 6.81 1.71C6.23 1.51 5.65 1.34 5.05 1.2C4.34 1.01 3.6 0.95 2.87 1.04C2.58 1.06 2.3 1.15 2.05 1.29C1.8 1.43 1.58 1.62 1.41 1.84C1.24 2.07 1.11 2.33 1.05 2.61C0.98 2.89 0.98 3.18 1.03 3.45C1.16 4.23 1.47 4.96 1.93 5.59C2.02 5.74 2.12 5.89 2.22 6.04C2.17 6.1 2.11 6.15 2.05 6.2C1.73 6.4 1.47 6.69 1.31 7.02C1.14 7.36 1.07 7.73 1.1 8.11C1.15 8.8 1.38 9.47 1.78 10.04C2.22 10.72 2.77 11.31 3.4 11.8L3.89 12.21C3.86 12.29 3.83 12.38 3.81 12.47C3.75 12.68 3.72 12.9 3.7 13.12C3.68 13.27 3.68 13.43 3.68 13.58C3.69 13.8 3.71 14.02 3.76 14.24C3.79 14.41 3.84 14.58 3.9 14.75C4.18 15.55 4.69 16.27 5.38 16.8C6.46 17.65 7.69 18.3 9 18.73C10.09 19.12 11.2 19.49 12.3 19.86C12.43 19.91 12.57 19.96 12.71 20C12.89 20.07 13.07 20.14 13.34 20.24L12.92 20.65C12.79 20.76 12.67 20.89 12.56 21.01C12.52 21.06 12.48 21.11 12.44 21.15C12.35 21.26 12.29 21.38 12.26 21.52C12.23 21.65 12.23 21.79 12.27 21.93C12.27 21.93 12.27 21.93 12.27 21.94C12.31 22.07 12.38 22.19 12.47 22.28C12.53 22.35 12.6 22.4 12.68 22.45C12.73 22.47 12.77 22.49 12.82 22.5C13 22.58 13.19 22.63 13.39 22.67C14.88 22.93 16.41 22.82 17.84 22.35C17.98 22.3 18.12 22.25 18.26 22.2L18.87 21.98L18.95 21.95L19.04 22.05C19.03 22.07 19.02 22.1 19.01 22.12C18.91 22.38 18.8 22.63 18.7 22.88C18.67 22.97 18.65 23.05 18.64 23.13C18.59 23.42 18.66 23.66 18.85 23.82C18.93 23.89 19.03 23.94 19.15 23.97C19.27 24 19.41 24 19.56 23.99C20.84 23.88 22.05 23.36 23.01 22.52C23.77 21.83 24.37 20.99 24.77 20.05C25.75 17.84 26.16 15.42 25.94 13.01ZM19.65 24.98Q18.94 25.06 18.45 24.77Q18.17 24.6 17.96 24.33Q17.76 24.07 17.68 23.77Q17.63 23.62 17.62 23.46Q16.83 23.68 16.02 23.76Q14.63 23.9 13.21 23.65Q13 23.61 12.8 23.55Q12.64 23.51 12.48 23.45Q12.27 23.37 12.09 23.26Q11.91 23.14 11.75 22.98Q11.59 22.81 11.47 22.61Q11.36 22.42 11.3 22.2Q11.24 21.97 11.24 21.75Q11.23 21.52 11.28 21.3Q11.33 21.07 11.43 20.88Q11.49 20.77 11.56 20.67Q11.31 20.58 11.02 20.49Q9.46 19.96 8.68 19.67Q7.49 19.28 6.42 18.69Q5.56 18.21 4.77 17.59Q3.99 16.99 3.49 16.21Q2.99 15.41 2.78 14.43Q2.65 13.79 2.69 13.16Q2.71 12.86 2.76 12.57Q2.19 12.13 1.72 11.6Q1.3 11.13 0.95 10.6Q0.57 10.04 0.35 9.42Q0.15 8.83 0.11 8.19Q0.07 7.77 0.14 7.38Q0.22 6.97 0.41 6.58Q0.6 6.21 0.86 5.91Q0.88 5.89 0.9 5.86Q0.61 5.41 0.41 4.91Q0.16 4.3 0.05 3.63Q-0.01 3.32 0 3.02Q0 2.7 0.07 2.38Q0.15 2.08 0.27 1.8Q0.41 1.51 0.61 1.24Q0.8 0.99 1.03 0.79Q1.27 0.58 1.57 0.41Q1.84 0.26 2.14 0.17Q2.44 0.07 2.76 0.04Q3.42 -0.04 4.06 0.02Q4.68 0.06 5.3 0.23Q6.23 0.45 7.14 0.77Q9.86 1.74 12.62 2.54Q14.78 3.17 16.97 3.7Q18.23 3.99 19.44 4.43Q20.54 4.83 21.59 5.35Q22.53 5.82 23.35 6.45Q24.26 7.14 25.02 8.03Q25.91 9.14 26.4 10.4Q26.85 11.6 26.93 12.93Q27.11 14.92 26.79 16.82Q26.48 18.68 25.69 20.45Q25.38 21.17 24.95 21.8Q24.41 22.6 23.67 23.27Q22.83 24.01 21.85 24.43Q20.83 24.88 19.65 24.98ZM4.73 12.94C4.71 12.96 4.7 12.97 4.7 12.97C4.7 13 4.7 13.03 4.7 13.06C4.7 13.08 4.7 13.11 4.7 13.14C4.7 13.16 4.7 13.17 4.7 13.18C4.67 13.44 4.68 13.7 4.72 13.96C4.75 14.12 4.79 14.28 4.85 14.44C5 14.84 5.24 15.2 5.56 15.5C6.05 15.98 6.61 16.4 7.22 16.74C8.24 17.23 9.27 17.66 10.33 18.04C11.55 18.5 12.77 18.91 14.03 19.34C14.17 19.38 14.3 19.44 14.43 19.5C14.53 19.53 14.63 19.59 14.7 19.67C14.7 19.68 14.7 19.68 14.7 19.68C14.77 19.76 14.82 19.86 14.84 19.97C14.85 20.03 14.85 20.09 14.85 20.16C14.84 20.2 14.83 20.24 14.82 20.29C14.78 20.39 14.72 20.48 14.63 20.55C14.59 20.6 14.54 20.65 14.49 20.7C14.35 20.84 14.21 20.97 14.07 21.11C14.06 21.12 14.05 21.13 14.04 21.14C13.98 21.19 13.93 21.25 13.87 21.3C13.79 21.39 13.72 21.49 13.65 21.6L13.97 21.65C14.07 21.67 14.16 21.68 14.26 21.69C14.28 21.69 14.3 21.69 14.31 21.69C14.5 21.7 14.69 21.71 14.88 21.71C15.86 21.72 16.83 21.54 17.75 21.19C18.15 21.05 18.55 20.89 18.97 20.78C19.74 20.59 20.25 20.98 20.25 21.68C20.25 21.73 20.24 21.77 20.24 21.82C20.24 21.85 20.23 21.88 20.23 21.9C20.23 21.91 20.23 21.91 20.23 21.92L20.23 21.9C20.23 21.91 20.22 21.91 20.22 21.92C20.22 21.94 20.21 21.97 20.21 21.99C20.17 22.23 20.1 22.48 20.05 22.77C20.43 22.69 20.8 22.57 21.15 22.4C21.5 22.23 21.83 22.03 22.13 21.78C22.82 21.18 23.37 20.44 23.73 19.61C24.68 17.49 25.05 15.17 24.79 12.87C24.72 11.96 24.45 11.07 24 10.27C23.54 9.47 22.92 8.78 22.17 8.24C21.5 7.77 20.79 7.36 20.06 7C18.84 6.44 17.56 6.01 16.25 5.72C13.29 4.97 10.36 4.19 7.49 3.15C6.69 2.87 5.9 2.6 5.08 2.39C4.53 2.24 3.96 2.16 3.39 2.15C2.42 2.15 1.99 2.7 2.29 3.61C2.47 4.16 2.74 4.68 3.08 5.16C3.88 6.25 4.88 7.19 6.03 7.92C7.57 8.95 9.24 9.78 11 10.4C11.17 10.46 11.33 10.53 11.49 10.61C11.61 10.66 11.71 10.75 11.76 10.86C11.81 10.98 11.82 11.11 11.78 11.23C11.76 11.29 11.73 11.35 11.68 11.4C11.64 11.45 11.59 11.49 11.53 11.52C11.47 11.55 11.41 11.56 11.34 11.57C11.28 11.57 11.21 11.56 11.15 11.54C11.06 11.53 10.97 11.5 10.89 11.47C8.1 10.59 5.53 9.15 3.34 7.22C3.28 7.14 3.2 7.08 3.11 7.04C3.02 7 2.91 6.99 2.81 7C2.71 7.01 2.62 7.05 2.54 7.11C2.46 7.17 2.4 7.25 2.36 7.34C2.26 7.49 2.2 7.66 2.18 7.84C2.16 8.02 2.18 8.19 2.24 8.36C2.33 8.74 2.49 9.1 2.71 9.42C3.11 9.99 3.58 10.5 4.1 10.95C4.9 11.54 5.74 12.07 6.62 12.52C8.54 13.54 10.55 14.38 12.62 15.05C12.86 15.13 13.09 15.23 13.3 15.36C13.39 15.42 13.46 15.51 13.5 15.61C13.53 15.72 13.53 15.83 13.48 15.93C13.45 16.04 13.38 16.14 13.29 16.21C13.19 16.28 13.07 16.31 12.95 16.3C12.79 16.29 12.63 16.25 12.48 16.2C10.13 15.46 7.86 14.5 5.69 13.34C5.51 13.25 5.33 13.15 5.15 13.05C5.12 13.03 5.09 13.02 5.06 13C4.97 12.95 4.87 12.91 4.78 12.87C4.76 12.9 4.74 12.92 4.73 12.94ZM6.21 14.74Q6.23 14.75 6.24 14.76L6.25 14.77L6.26 14.78Q6.55 15.07 6.86 15.31Q7.25 15.61 7.68 15.85Q9.14 16.55 10.68 17.11Q11.67 17.48 13.68 18.16Q14.13 18.31 14.35 18.39Q14.5 18.44 14.64 18.5Q14.73 18.53 14.82 18.57Q14.99 18.64 15.15 18.75Q15.32 18.86 15.45 19.02Q15.6 19.19 15.69 19.38Q15.78 19.57 15.82 19.78Q15.86 19.99 15.85 20.2Q15.83 20.41 15.76 20.62Q15.75 20.65 15.74 20.67Q15.77 20.67 15.79 20.66Q16.6 20.56 17.39 20.26L17.4 20.25L17.41 20.25Q17.5 20.22 17.69 20.15Q18.35 19.9 18.72 19.81L18.73 19.81Q19.51 19.62 20.1 19.86Q20.39 19.99 20.64 20.21Q20.9 20.44 21.04 20.73Q21.16 20.96 21.21 21.22Q21.35 21.12 21.49 21.01Q21.89 20.66 22.21 20.25Q22.57 19.77 22.82 19.2Q23.5 17.68 23.74 16.1Q23.98 14.57 23.8 12.98L23.8 12.97L23.8 12.95Q23.75 12.39 23.6 11.87Q23.43 11.3 23.13 10.77Q22.84 10.26 22.46 9.84Q22.07 9.41 21.59 9.06Q20.77 8.48 19.89 8.04Q19.76 7.97 19.64 7.91Q18.84 7.55 18.02 7.26Q17.05 6.92 16.03 6.69L16.02 6.69L16 6.69Q10.4 5.26 7.15 4.09Q5.81 3.61 4.82 3.35Q4.22 3.19 3.61 3.15Q3.5 3.15 3.39 3.15L3.16 3.14L3.23 3.29Q3.41 3.81 3.69 4.27Q3.78 4.42 3.88 4.57Q4.31 5.14 4.8 5.65Q5.6 6.46 6.58 7.09Q7.62 7.78 8.72 8.34Q9.98 8.98 11.33 9.46Q11.5 9.52 11.67 9.59Q11.79 9.64 11.9 9.69Q12.16 9.81 12.35 9.99Q12.55 10.18 12.67 10.45Q12.8 10.72 12.81 11Q12.82 11.27 12.73 11.54Q12.68 11.67 12.62 11.79Q12.55 11.93 12.45 12.04Q12.35 12.16 12.24 12.25Q12.12 12.34 11.98 12.41Q11.85 12.48 11.71 12.52Q11.56 12.56 11.41 12.57Q11.26 12.58 11.11 12.56Q11.01 12.54 10.91 12.52Q10.82 12.5 10.73 12.47Q10.64 12.45 10.56 12.41Q8.24 11.68 6.18 10.49Q4.7 9.64 3.36 8.55Q3.38 8.58 3.4 8.62Q3.46 8.74 3.53 8.85Q3.76 9.18 4.02 9.48Q4.35 9.85 4.73 10.17Q5.03 10.4 5.35 10.61Q6.19 11.17 7.09 11.64Q8.69 12.49 10.36 13.17Q11.62 13.68 12.92 14.1Q13.37 14.24 13.77 14.48Q13.79 14.49 13.82 14.51Q14.05 14.65 14.21 14.85Q14.37 15.05 14.45 15.31Q14.53 15.57 14.52 15.82Q14.51 16.04 14.43 16.26Q14.36 16.48 14.24 16.66Q14.09 16.87 13.86 17.03Q13.63 17.19 13.39 17.25Q13.14 17.31 12.88 17.29Q12.51 17.27 12.18 17.16Q10.31 16.57 8.52 15.8Q7.35 15.31 6.21 14.74Z" fill="#00D4FF" fill-opacity="1.000000" fill-rule="evenodd"/>
</svg>
