<svg width="22.000000" height="16.000000" viewBox="0 0 22 16" fill="none" xmlns="http://www.w3.org/2000/svg" xmlns:xlink="http://www.w3.org/1999/xlink">
    <desc>
        Created with Pixso.
    </desc>
    <defs/>
    <path id="Vector" d="M14 2C14 2.55 13.55 3 13 3C12.44 3 12 2.55 12 2L2 2L2 3.99C3.24 4.93 4 6.39 4 8C4 9.6 3.24 11.06 2 12L2 14L12 14C12 13.44 12.44 13 13 13C13.55 13 14 13.44 14 14L20 14L20 12C18.75 11.06 18 9.6 18 8C18 6.39 18.75 4.93 20 3.99L20 2L14 2ZM22 14C22 15.1 21.1 16 20 16L2 16C0.89 16 0 15.1 0 14L0 10.88L0.49 10.59C1.42 10.06 2 9.08 2 8C2 6.91 1.42 5.93 0.49 5.4L0 5.11L0 2C0 0.89 0.89 0 2 0L20 0C21.1 0 22 0.89 22 2L22 5.11L21.5 5.4C20.57 5.93 20 6.91 20 8C20 9.08 20.57 10.06 21.5 10.59L22 10.88L22 14ZM13 12C12.44 12 12 11.55 12 11C12 10.44 12.44 10 13 10C13.55 10 14 10.44 14 11C14 11.55 13.55 12 13 12ZM13 9C12.44 9 12 8.55 12 8C12 7.44 12.44 7 13 7C13.55 7 14 7.44 14 8C14 8.55 13.55 9 13 9ZM13 6C12.44 6 12 5.55 12 5C12 4.44 12.44 4 13 4C13.55 4 14 4.44 14 5C14 5.55 13.55 6 13 6Z" fill="#007BF9" fill-opacity="1.000000" fill-rule="evenodd"/>
</svg>
