<svg width="25.206970" height="21.006409" viewBox="0 0 25.207 21.0064" fill="none" xmlns="http://www.w3.org/2000/svg" xmlns:xlink="http://www.w3.org/1999/xlink">
    <desc>
        Created with Pixso.
    </desc>
    <defs/>
    <path id="Path 37838" d="M19.72 0C21.49 0 23.35 1.27 24 4.36L25.08 13.04C25.87 18.7 22.69 21 18.42 21L6.81 21C2.53 21 -0.75 19.41 0.14 13.04L1.23 4.36C1.79 1.18 3.71 0 5.5 0L19.72 0ZM8.53 4.66C8.28 4.65 8.03 4.72 7.81 4.85C7.6 4.99 7.43 5.19 7.33 5.42C7.22 5.65 7.19 5.91 7.24 6.16C7.28 6.41 7.4 6.64 7.58 6.82C7.76 7 7.98 7.13 8.23 7.18C8.48 7.23 8.74 7.21 8.97 7.12C9.21 7.02 9.41 6.86 9.55 6.65C9.69 6.44 9.77 6.19 9.77 5.93L9.76 5.77C9.73 5.47 9.58 5.19 9.36 4.98C9.13 4.78 8.84 4.66 8.53 4.66ZM16.64 4.66C16.39 4.65 16.14 4.72 15.92 4.85C15.71 4.99 15.54 5.19 15.43 5.42C15.33 5.65 15.3 5.91 15.35 6.16C15.39 6.41 15.51 6.64 15.69 6.82C15.86 7 16.09 7.13 16.34 7.18C16.59 7.23 16.85 7.21 17.08 7.12C17.32 7.02 17.52 6.86 17.66 6.65C17.8 6.44 17.88 6.19 17.88 5.93C17.88 5.77 17.85 5.6 17.79 5.45C17.73 5.3 17.64 5.16 17.52 5.04C17.41 4.92 17.27 4.83 17.12 4.76C16.97 4.7 16.8 4.66 16.64 4.66Z" fill="#FFFFFF" fill-opacity="1.000000" fill-rule="nonzero"/>
</svg>
