<svg width="24.000000" height="24.000000" viewBox="0 0 24 24" fill="none" xmlns="http://www.w3.org/2000/svg" xmlns:xlink="http://www.w3.org/1999/xlink">
    <desc>
        Created with Pixso.
    </desc>
    <defs/>
    <path id="Vector" d="M12 14.4C12.23 14.4 12.46 14.32 12.66 14.19C12.86 14.06 13.01 13.87 13.1 13.65C13.19 13.43 13.22 13.19 13.17 12.96C13.13 12.73 13.01 12.51 12.84 12.35C12.68 12.18 12.46 12.06 12.23 12.02C12 11.97 11.76 12 11.54 12.09C11.32 12.18 11.13 12.33 11 12.53C10.87 12.73 10.8 12.96 10.8 13.2C10.8 13.51 10.92 13.82 11.15 14.04C11.37 14.27 11.68 14.4 12 14.4ZM18 14.4C18.23 14.4 18.46 14.32 18.66 14.19C18.86 14.06 19.01 13.87 19.1 13.65C19.19 13.43 19.22 13.19 19.17 12.96C19.13 12.73 19.01 12.51 18.84 12.35C18.68 12.18 18.46 12.06 18.23 12.02C18 11.97 17.76 12 17.54 12.09C17.32 12.18 17.13 12.33 17 12.53C16.87 12.73 16.79 12.96 16.79 13.2C16.79 13.51 16.92 13.82 17.15 14.04C17.37 14.27 17.68 14.4 18 14.4ZM12 19.2C12.23 19.2 12.46 19.12 12.66 18.99C12.86 18.86 13.01 18.67 13.1 18.45C13.19 18.23 13.22 17.99 13.17 17.76C13.13 17.53 13.01 17.31 12.84 17.15C12.68 16.98 12.46 16.86 12.23 16.82C12 16.77 11.76 16.8 11.54 16.89C11.32 16.98 11.13 17.13 11 17.33C10.87 17.53 10.8 17.76 10.8 18C10.8 18.31 10.92 18.62 11.15 18.84C11.37 19.07 11.68 19.2 12 19.2ZM18 19.2C18.23 19.2 18.46 19.12 18.66 18.99C18.86 18.86 19.01 18.67 19.1 18.45C19.19 18.23 19.22 17.99 19.17 17.76C19.13 17.53 19.01 17.31 18.84 17.15C18.68 16.98 18.46 16.86 18.23 16.82C18 16.77 17.76 16.8 17.54 16.89C17.32 16.98 17.13 17.13 17 17.33C16.87 17.53 16.79 17.76 16.79 18C16.79 18.31 16.92 18.62 17.15 18.84C17.37 19.07 17.68 19.2 18 19.2ZM6 14.4C6.23 14.4 6.46 14.32 6.66 14.19C6.86 14.06 7.01 13.87 7.1 13.65C7.19 13.43 7.22 13.19 7.17 12.96C7.13 12.73 7.01 12.51 6.84 12.35C6.68 12.18 6.46 12.06 6.23 12.02C6 11.97 5.76 12 5.54 12.09C5.32 12.18 5.13 12.33 5 12.53C4.87 12.73 4.79 12.96 4.79 13.2C4.79 13.51 4.92 13.82 5.15 14.04C5.37 14.27 5.68 14.4 6 14.4ZM20.4 2.4L19.2 2.4L19.2 1.2C19.2 0.88 19.07 0.57 18.84 0.35C18.62 0.12 18.31 0 18 0C17.68 0 17.37 0.12 17.15 0.35C16.92 0.57 16.79 0.88 16.79 1.2L16.79 2.4L7.2 2.4L7.2 1.2C7.2 0.88 7.07 0.57 6.84 0.35C6.62 0.12 6.31 0 6 0C5.68 0 5.37 0.12 5.15 0.35C4.92 0.57 4.79 0.88 4.79 1.2L4.79 2.4L3.59 2.4C2.64 2.4 1.72 2.77 1.05 3.45C0.37 4.12 0 5.04 0 6L0 20.4C0 21.35 0.37 22.27 1.05 22.94C1.72 23.62 2.64 24 3.59 24L20.4 24C21.35 24 22.27 23.62 22.94 22.94C23.62 22.27 24 21.35 24 20.4L24 6C24 5.04 23.62 4.12 22.94 3.45C22.27 2.77 21.35 2.4 20.4 2.4ZM21.6 20.4C21.6 20.71 21.47 21.02 21.24 21.24C21.02 21.47 20.71 21.6 20.4 21.6L3.59 21.6C3.28 21.6 2.97 21.47 2.75 21.24C2.52 21.02 2.4 20.71 2.4 20.4L2.4 9.6L21.6 9.6L21.6 20.4ZM21.6 7.2L2.4 7.2L2.4 6C2.4 5.68 2.52 5.37 2.75 5.15C2.97 4.92 3.28 4.8 3.59 4.8L20.4 4.8C20.71 4.8 21.02 4.92 21.24 5.15C21.47 5.37 21.6 5.68 21.6 6L21.6 7.2ZM6 19.2C6.23 19.2 6.46 19.12 6.66 18.99C6.86 18.86 7.01 18.67 7.1 18.45C7.19 18.23 7.22 17.99 7.17 17.76C7.13 17.53 7.01 17.31 6.84 17.15C6.68 16.98 6.46 16.86 6.23 16.82C6 16.77 5.76 16.8 5.54 16.89C5.32 16.98 5.13 17.13 5 17.33C4.87 17.53 4.79 17.76 4.79 18C4.79 18.31 4.92 18.62 5.15 18.84C5.37 19.07 5.68 19.2 6 19.2Z" fill="#007BF9" fill-opacity="1.000000" fill-rule="nonzero"/>
</svg>
