<svg width="27.779541" height="27.779648" viewBox="0 0 27.7795 27.7796" fill="none" xmlns="http://www.w3.org/2000/svg" xmlns:xlink="http://www.w3.org/1999/xlink">
    <desc>
        Created with Pixso.
    </desc>
    <defs/>
    <path id="Vector" d="M13.89 0C10.21 0 6.68 1.47 4.07 4.07C1.47 6.67 0 10.2 0 13.88C0 17.56 1.47 21.09 4.07 23.7C6.68 26.3 10.21 27.77 13.89 27.77C17.57 27.77 21.1 26.3 23.7 23.7C26.31 21.09 27.77 17.56 27.77 13.88C27.77 10.2 26.31 6.67 23.7 4.07C21.1 1.46 17.57 0 13.89 0L13.89 0ZM13.89 2.77C15.35 2.77 16.8 3.05 18.15 3.61C19.5 4.17 20.72 4.98 21.75 6.02C22.79 7.05 23.6 8.27 24.16 9.62C24.72 10.97 25 12.42 25 13.88C25 15.34 24.72 16.79 24.16 18.14C23.6 19.49 22.79 20.71 21.75 21.75C20.72 22.78 19.5 23.6 18.15 24.16C16.8 24.71 15.35 25 13.89 25C12.43 25 10.98 24.71 9.63 24.16C8.28 23.6 7.06 22.78 6.03 21.75C4.99 20.71 4.17 19.49 3.62 18.14C3.06 16.79 2.77 15.34 2.78 13.88C2.78 7.73 7.74 2.77 13.89 2.77ZM13.89 5.55C10.96 5.55 8.33 7.6 8.33 10.42C8.33 11.84 9.26 12.93 10.23 13.61C11.2 14.29 12.3 14.72 13.34 15.16C14.39 15.6 15.37 16.02 15.96 16.44C16.55 16.85 16.67 17.04 16.67 17.35C16.67 18.38 15.58 19.44 13.89 19.44C12.21 19.44 11.11 18.39 11.11 17.35C11.12 17.17 11.09 16.98 11.03 16.8C10.96 16.62 10.86 16.45 10.73 16.32C10.6 16.18 10.45 16.07 10.27 15.99C10.1 15.92 9.91 15.88 9.72 15.88C9.53 15.88 9.34 15.92 9.17 15.99C8.99 16.07 8.84 16.18 8.71 16.32C8.58 16.45 8.48 16.62 8.41 16.8C8.35 16.98 8.32 17.17 8.33 17.35C8.33 20.17 10.96 22.22 13.9 22.22C16.82 22.22 19.44 20.17 19.44 17.35C19.44 15.93 18.51 14.84 17.54 14.15C16.57 13.48 15.46 13.03 14.43 12.6C13.52 12.26 12.64 11.84 11.81 11.34C11.22 10.92 11.11 10.72 11.11 10.42C11.11 9.39 12.21 8.33 13.9 8.33C15.58 8.33 16.67 9.38 16.67 10.42C16.65 10.61 16.67 10.81 16.73 10.99C16.79 11.18 16.89 11.35 17.02 11.49C17.15 11.64 17.31 11.75 17.49 11.83C17.67 11.91 17.86 11.95 18.06 11.95C18.25 11.95 18.44 11.91 18.62 11.83C18.8 11.75 18.96 11.64 19.09 11.49C19.22 11.35 19.32 11.18 19.38 10.99C19.44 10.81 19.46 10.61 19.44 10.42C19.44 7.6 16.82 5.55 13.89 5.55Z" fill="#00D4FF" fill-opacity="1.000000" fill-rule="nonzero"/>
</svg>
