<svg width="20.000000" height="17.000000" viewBox="0 0 20 17" fill="none" xmlns="http://www.w3.org/2000/svg" xmlns:xlink="http://www.w3.org/1999/xlink">
    <desc>
        Created with Pixso.
    </desc>
    <defs/>
    <path id="Vector" d="M4 17L19 17C19.55 17 20 16.55 20 16L20 12.89C20 11.29 18.7 10 17.1 10C16.23 10 15.46 9.47 15.14 8.67L14.71 7.58C14.08 6.01 12.58 5 10.89 5L10.54 5C9.54 5 8.67 4.28 8.48 3.3C8.09 1.38 6.4 0 4.45 0L1 0C0.44 0 0 0.44 0 1L0 13C0 15.2 1.79 17 4 17ZM2 2L4.45 2C5.45 2 6.32 2.71 6.51 3.69C6.9 5.61 8.59 7 10.54 7L10.89 7C11.76 7 12.53 7.52 12.85 8.32L13.28 9.41C13.91 10.98 15.41 12 17.1 12C17.59 12 18 12.4 18 12.89L18 15L4 15C2.89 15 2 14.1 2 13L2 2Z" fill="#007BF9" fill-opacity="1.000000" fill-rule="nonzero"/>
</svg>
