<svg width="25.000000" height="25.013550" viewBox="0 0 25 25.0135" fill="none" xmlns="http://www.w3.org/2000/svg" xmlns:xlink="http://www.w3.org/1999/xlink">
    <desc>
        Created with Pixso.
    </desc>
    <defs/>
    <path id="Path 73899" d="M14.77 2.16C14.12 1.66 13.32 1.38 12.5 1.38C11.67 1.38 10.87 1.66 10.22 2.16L2.81 7.93C2.37 8.27 2.01 8.71 1.76 9.22C1.51 9.72 1.38 10.28 1.38 10.84L1.38 20.84C1.38 21.58 1.68 22.29 2.2 22.81C2.72 23.33 3.42 23.62 4.16 23.62L20.83 23.62C21.57 23.62 22.27 23.33 22.79 22.81C23.31 22.29 23.61 21.58 23.61 20.84L23.61 10.84C23.61 10.28 23.48 9.72 23.23 9.22C22.98 8.71 22.62 8.27 22.18 7.93L14.77 2.16Z" stroke="#6159FC" stroke-opacity="1.000000" stroke-width="2.777778" stroke-linejoin="round"/>
    <path id="Path 73900" d="M18.01 16.66C16.3 17.57 14.39 18.05 12.45 18.05C10.51 18.05 8.61 17.57 6.9 16.66" stroke="#6159FC" stroke-opacity="1.000000" stroke-width="2.777778" stroke-linejoin="round" stroke-linecap="round"/>
</svg>
