<svg width="26.000000" height="29.000000" viewBox="0 0 26 29" fill="none" xmlns="http://www.w3.org/2000/svg" xmlns:xlink="http://www.w3.org/1999/xlink">
    <desc>
        Created with Pixso.
    </desc>
    <defs/>
    <path id="Vector" d="M19 7L19 12L15 12C14.73 12 14.48 12.1 14.29 12.29C14.1 12.48 14 12.73 14 13L14 23C14 23.26 14.1 23.51 14.29 23.7C14.48 23.89 14.73 24 15 24L19 24L19 29L21 29L21 24L25 24C25.26 24 25.51 23.89 25.7 23.7C25.89 23.51 26 23.26 26 23L26 13C26 12.73 25.89 12.48 25.7 12.29C25.51 12.1 25.26 12 25 12L21 12L21 7L19 7ZM1 17L5 17L5 22L7 22L7 17L11 17C11.26 17 11.51 16.89 11.7 16.7C11.89 16.51 12 16.26 12 16L12 6C12 5.73 11.89 5.48 11.7 5.29C11.51 5.1 11.26 5 11 5L7 5L7 0L5 0L5 5L1 5C0.73 5 0.48 5.1 0.29 5.29C0.1 5.48 0 5.73 0 6L0 16C0 16.26 0.1 16.51 0.29 16.7C0.48 16.89 0.73 17 1 17ZM2 7L10 7L10 15L2 15L2 7Z" fill="#FCBA2E" fill-opacity="1.000000" fill-rule="nonzero"/>
</svg>
