<svg width="22.000000" height="22.000000" viewBox="0 0 22 22" fill="none" xmlns="http://www.w3.org/2000/svg" xmlns:xlink="http://www.w3.org/1999/xlink">
    <desc>
        Created with Pixso.
    </desc>
    <defs/>
    <path id="Vector" d="M11 2.04C15.93 2.04 19.95 6.06 19.95 11C19.95 15.93 15.93 19.95 11 19.95C8.62 19.95 6.34 19 4.67 17.32C2.99 15.65 2.04 13.37 2.04 11C2.04 6.06 6.06 2.04 11 2.04ZM11 0C4.93 0 0 4.93 0 11C0 17.06 4.93 22 11 22C17.06 22 22 17.06 22 11C22 4.93 17.06 0 11 0ZM12.57 4.71L9.42 4.71L9.42 12.57L12.57 12.57L12.57 4.71ZM12.57 14.14L9.42 14.14L9.42 17.28L12.57 17.28L12.57 14.14Z" fill="#F85464" fill-opacity="1.000000" fill-rule="evenodd"/>
</svg>
