<svg width="24.000000" height="24.000000" viewBox="0 0 24 24" fill="none" xmlns="http://www.w3.org/2000/svg" xmlns:xlink="http://www.w3.org/1999/xlink">
    <desc>
        Created with Pixso.
    </desc>
    <defs/>
    <path id="Vector" d="M14.4 7.2L15.6 7.2C15.91 7.2 16.22 7.07 16.44 6.84C16.67 6.62 16.79 6.31 16.79 6C16.79 5.68 16.67 5.37 16.44 5.15C16.22 4.92 15.91 4.8 15.6 4.8L14.4 4.8C14.08 4.8 13.77 4.92 13.55 5.15C13.32 5.37 13.2 5.68 13.2 6C13.2 6.31 13.32 6.62 13.55 6.84C13.77 7.07 14.08 7.2 14.4 7.2ZM14.4 12L15.6 12C15.91 12 16.22 11.87 16.44 11.64C16.67 11.42 16.79 11.11 16.79 10.8C16.79 10.48 16.67 10.17 16.44 9.95C16.22 9.72 15.91 9.6 15.6 9.6L14.4 9.6C14.08 9.6 13.77 9.72 13.55 9.95C13.32 10.17 13.2 10.48 13.2 10.8C13.2 11.11 13.32 11.42 13.55 11.64C13.77 11.87 14.08 12 14.4 12ZM8.4 7.2L9.59 7.2C9.91 7.2 10.22 7.07 10.44 6.84C10.67 6.62 10.8 6.31 10.8 6C10.8 5.68 10.67 5.37 10.44 5.15C10.22 4.92 9.91 4.8 9.59 4.8L8.4 4.8C8.08 4.8 7.77 4.92 7.55 5.15C7.32 5.37 7.2 5.68 7.2 6C7.2 6.31 7.32 6.62 7.55 6.84C7.77 7.07 8.08 7.2 8.4 7.2ZM8.4 12L9.59 12C9.91 12 10.22 11.87 10.44 11.64C10.67 11.42 10.8 11.11 10.8 10.8C10.8 10.48 10.67 10.17 10.44 9.95C10.22 9.72 9.91 9.6 9.59 9.6L8.4 9.6C8.08 9.6 7.77 9.72 7.55 9.95C7.32 10.17 7.2 10.48 7.2 10.8C7.2 11.11 7.32 11.42 7.55 11.64C7.77 11.87 8.08 12 8.4 12ZM22.8 21.6L21.6 21.6L21.6 1.2C21.6 0.88 21.47 0.57 21.24 0.35C21.02 0.12 20.71 0 20.4 0L3.59 0C3.28 0 2.97 0.12 2.75 0.35C2.52 0.57 2.4 0.88 2.4 1.2L2.4 21.6L1.2 21.6C0.88 21.6 0.57 21.72 0.35 21.95C0.12 22.17 0 22.48 0 22.8C0 23.11 0.12 23.42 0.35 23.64C0.57 23.87 0.88 24 1.2 24L22.8 24C23.11 24 23.42 23.87 23.64 23.64C23.87 23.42 24 23.11 24 22.8C24 22.48 23.87 22.17 23.64 21.95C23.42 21.72 23.11 21.6 22.8 21.6ZM13.2 21.6L10.8 21.6L10.8 16.79L13.2 16.79L13.2 21.6ZM19.2 21.6L15.6 21.6L15.6 15.6C15.6 15.28 15.47 14.97 15.24 14.75C15.02 14.52 14.71 14.4 14.4 14.4L9.59 14.4C9.28 14.4 8.97 14.52 8.75 14.75C8.52 14.97 8.4 15.28 8.4 15.6L8.4 21.6L4.79 21.6L4.79 2.4L19.2 2.4L19.2 21.6Z" fill="#30BF89" fill-opacity="1.000000" fill-rule="nonzero"/>
</svg>
