<svg width="26.000000" height="26.000000" viewBox="0 0 26 26" fill="none" xmlns="http://www.w3.org/2000/svg" xmlns:xlink="http://www.w3.org/1999/xlink">
    <desc>
        Created with Pixso.
    </desc>
    <defs/>
    <path id="Vector" d="M25.29 7.09C24.77 6.58 23.99 6.45 23.2 6.19C18.64 4.78 13.95 3.1 9.51 1.3C8.47 0.79 7.43 0.4 6.25 0.14C5.73 0.01 4.95 -0.11 4.56 0.14C4.17 0.4 4.04 0.92 3.78 1.3C3.25 2.2 0.78 6.96 1.95 7.74C2.21 7.86 4.69 8.25 4.69 8.51C4.56 9.67 3.52 10.44 3.39 11.6C3.39 12.63 4.17 13.4 4.95 14.17C6.38 15.33 7.82 16.74 9.25 18.03C9.51 18.29 9.9 18.55 10.03 18.93C10.17 19.32 10.3 19.7 10.03 20.09C9.12 19.7 8.08 19.7 7.17 19.96C7.04 19.96 6.78 20.09 6.64 19.96C6.51 19.83 6.51 19.83 6.51 19.7C6.38 18.93 6.25 18.16 6.12 17.39C6.12 17.26 6.12 17.13 5.99 17.13C5.73 16.74 4.56 17.13 4.17 17.13C3.39 17.13 2.73 17.13 1.95 17C1.43 16.87 0.91 16.74 0.52 17C0.13 17.26 0 17.9 0 18.42C0 19.83 0 21.25 0.26 22.66C0.39 23.44 0.52 24.08 0.65 24.85C0.65 25.11 0.78 25.75 0.91 25.88C1.17 26.14 1.56 25.88 1.69 25.88C2.08 25.75 2.47 25.75 2.86 25.75C3.65 25.75 4.56 25.75 5.34 25.88C5.73 26.01 6.12 26.01 6.38 25.75C6.51 25.62 6.51 25.37 6.51 25.24C6.64 24.34 6.64 23.44 6.78 22.53C7.82 22.41 8.99 22.53 9.9 23.05C10.95 23.56 11.86 24.47 13.03 24.72C14.21 24.85 15.51 24.21 15.9 23.05C16.42 22.02 16.16 20.6 15.38 19.7C14.73 18.93 13.69 18.42 12.9 17.64C12.38 17.13 7.43 13.4 7.43 13.27C9.77 14.43 16.16 17.52 18.77 18.03C19.16 18.16 19.55 18.16 19.94 18.03C20.2 17.9 20.34 17.64 20.47 17.52C21.64 15.97 22.42 14.17 22.81 12.24C22.94 11.85 22.94 11.6 23.07 11.21C23.73 10.18 25.29 10.18 25.81 9.15C26.2 8.51 25.94 7.61 25.29 7.09ZM2.86 23.05C2.73 22.92 2.86 22.41 2.86 22.28C2.86 22.15 2.86 21.89 2.86 21.76C2.86 21.38 2.86 20.86 2.86 20.48C2.86 20.22 2.73 19.45 2.99 19.32C3.25 19.19 3.91 19.32 4.17 19.32C4.3 19.32 4.17 21.51 4.17 21.63C4.17 22.02 4.43 22.41 4.3 22.79C3.91 23.31 2.99 23.31 2.86 23.05ZM13.16 20.6C13.56 20.6 13.82 20.86 13.82 21.25C13.82 21.63 13.56 21.89 13.16 21.89C12.77 21.89 12.51 21.63 12.51 21.25C12.51 20.86 12.77 20.6 13.16 20.6ZM19.03 15.07C14.86 13.66 10.69 12.11 6.51 10.57C6.38 10.57 6.78 9.67 6.91 9.54C7.17 9.41 7.82 9.79 8.08 9.92C11.21 11.08 14.34 12.24 17.6 13.4C17.73 13.4 17.86 13.53 17.99 13.53C18.12 13.53 18.25 13.53 18.25 13.4C18.9 13.14 19.55 12.88 20.07 12.63C19.55 13.4 19.16 14.17 19.03 15.07ZM17.73 10.7C17.86 10.82 4.69 5.93 4.56 6.06C4.43 5.93 5.6 2.85 5.99 2.85C5.86 2.97 21.77 8.64 21.77 8.64C21.51 8.77 17.99 10.7 17.73 10.7Z" fill="#005364" fill-opacity="1.000000" fill-rule="nonzero"/>
</svg>
