<svg width="20.251343" height="20.250000" viewBox="0 0 20.2513 20.25" fill="none" xmlns="http://www.w3.org/2000/svg" xmlns:xlink="http://www.w3.org/1999/xlink">
    <desc>
        Created with Pixso.
    </desc>
    <defs/>
    <path id="settings" d="M10.14 0C9.62 -0.01 9.12 0.13 8.68 0.4C8.24 0.67 7.88 1.06 7.65 1.52L7.22 2.39C7.04 2.46 6.88 2.53 6.71 2.6L5.79 2.3C5.3 2.13 4.78 2.11 4.28 2.23C3.78 2.34 3.32 2.6 2.96 2.96C2.6 3.32 2.34 3.78 2.23 4.28C2.11 4.78 2.13 5.3 2.3 5.79L2.6 6.71C2.53 6.88 2.46 7.05 2.39 7.22L1.52 7.65C1.06 7.88 0.68 8.23 0.41 8.67C0.14 9.1 0 9.61 0 10.12C0 10.63 0.14 11.14 0.41 11.57C0.68 12.01 1.06 12.36 1.52 12.59L2.4 13.03C2.46 13.2 2.53 13.37 2.6 13.53L2.3 14.46C2.14 14.94 2.11 15.46 2.23 15.96C2.35 16.46 2.6 16.92 2.96 17.28C3.33 17.64 3.78 17.9 4.28 18.01C4.78 18.13 5.3 18.11 5.79 17.95L6.71 17.64C6.88 17.72 7.05 17.79 7.22 17.85L7.65 18.72C7.88 19.18 8.23 19.56 8.67 19.83C9.11 20.1 9.61 20.25 10.12 20.25C10.64 20.25 11.14 20.1 11.57 19.83C12.01 19.56 12.36 19.18 12.59 18.72L13.02 17.85C13.2 17.78 13.37 17.71 13.54 17.64L14.46 17.95C14.94 18.11 15.46 18.13 15.96 18.01C16.46 17.9 16.92 17.64 17.28 17.28C17.64 16.92 17.9 16.46 18.02 15.96C18.13 15.46 18.11 14.94 17.95 14.45L17.64 13.53C17.72 13.36 17.79 13.2 17.85 13.02L18.72 12.59C19.18 12.36 19.56 12.01 19.83 11.57C20.1 11.14 20.25 10.63 20.25 10.12C20.25 9.61 20.1 9.1 19.83 8.67C19.56 8.23 19.18 7.88 18.72 7.65L17.85 7.22C17.78 7.04 17.71 6.87 17.64 6.71L17.95 5.79C18.11 5.3 18.13 4.78 18.01 4.28C17.9 3.78 17.64 3.33 17.28 2.96C16.92 2.6 16.46 2.35 15.96 2.23C15.46 2.11 14.94 2.13 14.46 2.3L13.53 2.6C13.37 2.53 13.2 2.46 13.02 2.39L12.59 1.53C12.36 1.07 12.01 0.68 11.58 0.41C11.15 0.14 10.65 0 10.14 0ZM10.13 1.84C10.3 1.84 10.47 1.89 10.61 1.98C10.75 2.07 10.87 2.19 10.94 2.35L11.53 3.52C11.58 3.63 11.66 3.72 11.75 3.8C11.85 3.88 11.96 3.94 12.07 3.98C12.42 4.09 12.76 4.23 13.08 4.4C13.19 4.46 13.31 4.49 13.43 4.5C13.55 4.51 13.68 4.5 13.79 4.46L15.03 4.04C15.19 3.99 15.37 3.98 15.53 4.02C15.7 4.06 15.85 4.14 15.97 4.26C16.09 4.38 16.18 4.54 16.21 4.7C16.25 4.87 16.24 5.04 16.19 5.21L15.78 6.44C15.74 6.56 15.72 6.68 15.73 6.8C15.74 6.93 15.78 7.04 15.83 7.15C16 7.48 16.13 7.81 16.24 8.16C16.28 8.28 16.34 8.39 16.42 8.48C16.5 8.58 16.6 8.65 16.71 8.71L17.89 9.3C18.04 9.37 18.17 9.49 18.26 9.63C18.35 9.78 18.4 9.95 18.4 10.12C18.4 10.29 18.35 10.46 18.26 10.6C18.17 10.75 18.04 10.86 17.89 10.94L16.72 11.53C16.61 11.58 16.51 11.66 16.43 11.75C16.35 11.84 16.29 11.95 16.25 12.07C16.14 12.41 16 12.75 15.83 13.08C15.78 13.18 15.74 13.3 15.73 13.43C15.72 13.55 15.74 13.67 15.78 13.79L16.19 15.03C16.25 15.19 16.25 15.37 16.22 15.54C16.18 15.7 16.09 15.85 15.97 15.98C15.85 16.1 15.7 16.18 15.53 16.22C15.37 16.26 15.19 16.25 15.03 16.2L13.79 15.78C13.68 15.74 13.55 15.73 13.43 15.74C13.31 15.75 13.19 15.78 13.08 15.84C12.76 16 12.42 16.14 12.07 16.25C11.95 16.29 11.84 16.35 11.75 16.43C11.66 16.51 11.58 16.61 11.52 16.72L10.94 17.89C10.86 18.04 10.75 18.17 10.6 18.26C10.46 18.35 10.29 18.4 10.12 18.4C9.95 18.4 9.78 18.35 9.63 18.26C9.49 18.17 9.37 18.04 9.3 17.89L8.71 16.72C8.66 16.61 8.58 16.52 8.49 16.44C8.39 16.36 8.29 16.29 8.17 16.26C7.82 16.15 7.48 16.01 7.16 15.84C7.05 15.78 6.93 15.75 6.81 15.74C6.68 15.73 6.56 15.74 6.44 15.78L5.2 16.19C5.04 16.25 4.87 16.26 4.7 16.22C4.53 16.18 4.38 16.09 4.26 15.97C4.14 15.85 4.06 15.7 4.02 15.53C3.98 15.37 3.99 15.19 4.04 15.03L4.46 13.79C4.49 13.67 4.51 13.55 4.5 13.43C4.49 13.31 4.46 13.19 4.4 13.08C4.23 12.76 4.09 12.42 3.99 12.07C3.95 11.96 3.89 11.85 3.81 11.75C3.73 11.66 3.63 11.58 3.52 11.53L2.35 10.94C2.19 10.86 2.06 10.74 1.97 10.6C1.88 10.45 1.84 10.29 1.84 10.12C1.84 9.95 1.88 9.78 1.97 9.63C2.06 9.49 2.19 9.37 2.35 9.3L3.52 8.71C3.63 8.66 3.72 8.58 3.8 8.49C3.88 8.39 3.94 8.29 3.98 8.17C4.09 7.82 4.23 7.49 4.4 7.16C4.46 7.05 4.49 6.94 4.5 6.81C4.51 6.69 4.5 6.57 4.46 6.45L4.04 5.21C3.99 5.04 3.98 4.87 4.02 4.7C4.06 4.54 4.14 4.39 4.26 4.26C4.38 4.14 4.53 4.06 4.7 4.02C4.87 3.98 5.04 3.99 5.2 4.04L6.44 4.46C6.56 4.5 6.68 4.51 6.8 4.5C6.93 4.49 7.05 4.46 7.15 4.4C7.48 4.24 7.81 4.1 8.16 3.99C8.28 3.95 8.39 3.89 8.48 3.81C8.58 3.73 8.65 3.63 8.71 3.52L9.3 2.35C9.37 2.19 9.49 2.06 9.64 1.97C9.79 1.88 9.96 1.83 10.13 1.84ZM10.13 5.52C9.22 5.52 8.33 5.79 7.57 6.29C6.82 6.8 6.23 7.52 5.88 8.36C5.53 9.2 5.44 10.12 5.62 11.01C5.8 11.91 6.23 12.73 6.88 13.37C7.52 14.01 8.34 14.45 9.23 14.63C10.12 14.81 11.05 14.72 11.89 14.37C12.73 14.02 13.45 13.43 13.95 12.67C14.46 11.92 14.73 11.03 14.73 10.12C14.72 8.9 14.24 7.73 13.37 6.87C12.51 6.01 11.34 5.52 10.12 5.52L10.13 5.52ZM10.13 7.36C10.68 7.36 11.21 7.52 11.66 7.83C12.12 8.13 12.47 8.56 12.68 9.07C12.89 9.57 12.94 10.13 12.83 10.66C12.73 11.2 12.46 11.69 12.08 12.08C11.69 12.46 11.2 12.73 10.66 12.83C10.12 12.94 9.57 12.88 9.06 12.67C8.56 12.46 8.13 12.11 7.83 11.65C7.52 11.2 7.36 10.66 7.36 10.12C7.36 9.75 7.43 9.39 7.57 9.06C7.71 8.72 7.91 8.42 8.17 8.16C8.42 7.9 8.73 7.7 9.06 7.56C9.4 7.43 9.76 7.36 10.12 7.36L10.13 7.36Z" fill="#6159FC" fill-opacity="1.000000" fill-rule="evenodd"/>
</svg>
